<mxfile host="drawio-plugin" modified="2022-05-29T23:37:58.609Z" agent="5.0 (Macintosh; Intel Mac OS X 11_6_5) AppleWebKit/537.36 (KHTML, like Gecko) Chrome/89.0.4389.114 Safari/537.36" etag="u730gLXo9zG6X2K4sZnO" version="15.5.4" type="embed"><diagram id="23iRSUPoRavnBvh4doch" name="Page-1"><mxGraphModel dx="882" dy="707" grid="1" gridSize="10" guides="1" tooltips="1" connect="1" arrows="1" fold="1" page="1" pageScale="1" pageWidth="827" pageHeight="1169" math="0" shadow="0"><root><mxCell id="0"/><mxCell id="1" parent="0"/><mxCell id="2" value="&lt;font color=&quot;#000000&quot;&gt;submitted sign-up form&lt;/font&gt;" style="html=1;outlineConnect=0;whiteSpace=wrap;fillColor=#FFB973;shape=mxgraph.archimate3.application;appType=location;archiType=square;" vertex="1" parent="1"><mxGeometry x="240" y="280" width="110" height="80" as="geometry"/></mxCell><mxCell id="10" style="edgeStyle=orthogonalEdgeStyle;rounded=0;orthogonalLoop=1;jettySize=auto;html=1;exitX=1;exitY=0.5;exitDx=0;exitDy=0;exitPerimeter=0;entryX=0;entryY=0.5;entryDx=0;entryDy=0;entryPerimeter=0;fontColor=#000000;" edge="1" parent="1" source="3" target="4"><mxGeometry relative="1" as="geometry"/></mxCell><mxCell id="3" value="Open&lt;br&gt;Spotlight app" style="html=1;outlineConnect=0;whiteSpace=wrap;fillColor=#99ffff;shape=mxgraph.archimate3.application;appType=interface;archiType=square;fontColor=#000000;" vertex="1" parent="1"><mxGeometry x="50" y="200" width="110" height="75" as="geometry"/></mxCell><mxCell id="42" style="edgeStyle=orthogonalEdgeStyle;rounded=0;orthogonalLoop=1;jettySize=auto;html=1;entryX=0.25;entryY=0;entryDx=0;entryDy=0;entryPerimeter=0;fontColor=#000000;startArrow=none;startFill=0;exitX=1;exitY=0.5;exitDx=0;exitDy=0;exitPerimeter=0;" edge="1" parent="1" source="4" target="24"><mxGeometry relative="1" as="geometry"/></mxCell><mxCell id="4" value="&lt;font color=&quot;#000000&quot;&gt;submitted log-in form&lt;/font&gt;" style="html=1;outlineConnect=0;whiteSpace=wrap;fillColor=#FFB973;shape=mxgraph.archimate3.application;appType=location;archiType=square;" vertex="1" parent="1"><mxGeometry x="240" y="130" width="110" height="80" as="geometry"/></mxCell><mxCell id="14" style="edgeStyle=orthogonalEdgeStyle;rounded=0;orthogonalLoop=1;jettySize=auto;html=1;exitX=1;exitY=0.5;exitDx=0;exitDy=0;exitPerimeter=0;entryX=0;entryY=0.5;entryDx=0;entryDy=0;entryPerimeter=0;fontColor=#000000;" edge="1" parent="1" source="3" target="2"><mxGeometry relative="1" as="geometry"><mxPoint x="170" y="247.5" as="sourcePoint"/><mxPoint x="270" y="180" as="targetPoint"/></mxGeometry></mxCell><mxCell id="15" value="&lt;font color=&quot;#000000&quot;&gt;candidate&lt;br&gt;authenticated&lt;br&gt;&lt;/font&gt;" style="html=1;outlineConnect=0;whiteSpace=wrap;fillColor=#FFB973;shape=mxgraph.archimate3.application;appType=location;archiType=square;" vertex="1" parent="1"><mxGeometry x="500" y="130" width="110" height="80" as="geometry"/></mxCell><mxCell id="34" style="edgeStyle=orthogonalEdgeStyle;rounded=0;orthogonalLoop=1;jettySize=auto;html=1;entryX=0;entryY=0.5;entryDx=0;entryDy=0;entryPerimeter=0;fontColor=#000000;" edge="1" parent="1" source="17" target="33"><mxGeometry relative="1" as="geometry"/></mxCell><mxCell id="17" value="&lt;font color=&quot;#000000&quot;&gt;account&amp;nbsp;&lt;br&gt;created&lt;br&gt;&lt;/font&gt;" style="html=1;outlineConnect=0;whiteSpace=wrap;fillColor=#FFB973;shape=mxgraph.archimate3.application;appType=location;archiType=square;" vertex="1" parent="1"><mxGeometry x="500" y="280" width="110" height="80" as="geometry"/></mxCell><mxCell id="18" value="" style="endArrow=classic;html=1;rounded=0;fontColor=#000000;exitX=1;exitY=0.5;exitDx=0;exitDy=0;exitPerimeter=0;entryX=0.25;entryY=0;entryDx=0;entryDy=0;entryPerimeter=0;edgeStyle=orthogonalEdgeStyle;" edge="1" parent="1" source="2" target="24"><mxGeometry width="50" height="50" relative="1" as="geometry"><mxPoint x="360" y="370" as="sourcePoint"/><mxPoint x="410" y="320" as="targetPoint"/></mxGeometry></mxCell><mxCell id="20" value="Auth&lt;br&gt;Service" style="html=1;outlineConnect=0;whiteSpace=wrap;fillColor=#FFE0E0;shape=mxgraph.archimate3.application;archiType=rounded;fontColor=#000000;strokeColor=#000000;" vertex="1" parent="1"><mxGeometry x="170" y="440" width="110" height="80" as="geometry"/></mxCell><mxCell id="32" value="" style="edgeStyle=orthogonalEdgeStyle;rounded=0;orthogonalLoop=1;jettySize=auto;html=1;fontColor=#000000;" edge="1" parent="1" source="24" target="27"><mxGeometry relative="1" as="geometry"/></mxCell><mxCell id="40" style="edgeStyle=orthogonalEdgeStyle;rounded=0;orthogonalLoop=1;jettySize=auto;html=1;entryX=1;entryY=0.5;entryDx=0;entryDy=0;entryPerimeter=0;fontColor=#000000;startArrow=classic;startFill=1;" edge="1" parent="1" source="24" target="20"><mxGeometry relative="1" as="geometry"/></mxCell><mxCell id="44" style="edgeStyle=orthogonalEdgeStyle;rounded=0;orthogonalLoop=1;jettySize=auto;html=1;exitX=0.75;exitY=0;exitDx=0;exitDy=0;exitPerimeter=0;entryX=0;entryY=0.5;entryDx=0;entryDy=0;entryPerimeter=0;fontColor=#000000;startArrow=none;startFill=0;" edge="1" parent="1" source="24" target="17"><mxGeometry relative="1" as="geometry"/></mxCell><mxCell id="45" style="edgeStyle=orthogonalEdgeStyle;rounded=0;orthogonalLoop=1;jettySize=auto;html=1;exitX=0.75;exitY=0;exitDx=0;exitDy=0;exitPerimeter=0;entryX=0;entryY=0.5;entryDx=0;entryDy=0;entryPerimeter=0;fontColor=#000000;startArrow=none;startFill=0;" edge="1" parent="1" source="24" target="15"><mxGeometry relative="1" as="geometry"/></mxCell><mxCell id="24" value="Account&lt;br&gt;Management" style="html=1;outlineConnect=0;whiteSpace=wrap;fillColor=#CCCCFF;shape=mxgraph.archimate3.application;appType=driver;archiType=oct;fontColor=#000000;strokeColor=#000000;" vertex="1" parent="1"><mxGeometry x="370" y="440" width="110" height="80" as="geometry"/></mxCell><mxCell id="48" style="edgeStyle=orthogonalEdgeStyle;rounded=0;orthogonalLoop=1;jettySize=auto;html=1;exitX=0.5;exitY=1;exitDx=0;exitDy=0;exitPerimeter=0;fontColor=#000000;startArrow=none;startFill=0;dashed=1;" edge="1" parent="1" source="27" target="46"><mxGeometry relative="1" as="geometry"/></mxCell><mxCell id="27" value="&lt;font color=&quot;#000000&quot;&gt;Account validation&lt;br&gt;triggered&lt;br&gt;&lt;/font&gt;" style="html=1;outlineConnect=0;whiteSpace=wrap;fillColor=#FFB973;shape=mxgraph.archimate3.application;appType=location;archiType=square;" vertex="1" parent="1"><mxGeometry x="370" y="580" width="110" height="80" as="geometry"/></mxCell><mxCell id="36" style="edgeStyle=orthogonalEdgeStyle;rounded=0;orthogonalLoop=1;jettySize=auto;html=1;fontColor=#000000;" edge="1" parent="1" source="33" target="35"><mxGeometry relative="1" as="geometry"/></mxCell><mxCell id="33" value="&lt;font color=&quot;#000000&quot;&gt;Account validation email&lt;br&gt;received&lt;br&gt;&lt;/font&gt;" style="html=1;outlineConnect=0;whiteSpace=wrap;fillColor=#FFB973;shape=mxgraph.archimate3.application;appType=location;archiType=square;" vertex="1" parent="1"><mxGeometry x="660" y="280" width="110" height="80" as="geometry"/></mxCell><mxCell id="52" style="edgeStyle=orthogonalEdgeStyle;rounded=0;orthogonalLoop=1;jettySize=auto;html=1;entryX=1;entryY=0.75;entryDx=0;entryDy=0;entryPerimeter=0;fontColor=#000000;startArrow=none;startFill=0;exitX=0.5;exitY=1;exitDx=0;exitDy=0;exitPerimeter=0;dashed=1;" edge="1" parent="1" source="35" target="46"><mxGeometry relative="1" as="geometry"/></mxCell><mxCell id="35" value="&lt;font color=&quot;#000000&quot;&gt;Replied to account verification&lt;br&gt;&lt;/font&gt;" style="html=1;outlineConnect=0;whiteSpace=wrap;fillColor=#FFB973;shape=mxgraph.archimate3.application;appType=location;archiType=square;" vertex="1" parent="1"><mxGeometry x="660" y="440" width="110" height="80" as="geometry"/></mxCell><mxCell id="51" style="edgeStyle=orthogonalEdgeStyle;rounded=0;orthogonalLoop=1;jettySize=auto;html=1;fontColor=#000000;startArrow=none;startFill=0;" edge="1" parent="1" source="46" target="49"><mxGeometry relative="1" as="geometry"/></mxCell><mxCell id="54" style="edgeStyle=orthogonalEdgeStyle;rounded=0;orthogonalLoop=1;jettySize=auto;html=1;entryX=0.5;entryY=1;entryDx=0;entryDy=0;entryPerimeter=0;fontColor=#000000;startArrow=none;startFill=0;exitX=1;exitY=0.25;exitDx=0;exitDy=0;exitPerimeter=0;" edge="1" parent="1" source="46" target="53"><mxGeometry relative="1" as="geometry"/></mxCell><mxCell id="46" value="Notification&lt;br&gt;service" style="html=1;outlineConnect=0;whiteSpace=wrap;fillColor=#CCCCFF;shape=mxgraph.archimate3.application;appType=driver;archiType=oct;fontColor=#000000;strokeColor=#000000;" vertex="1" parent="1"><mxGeometry x="370" y="740" width="110" height="80" as="geometry"/></mxCell><mxCell id="49" value="&lt;font color=&quot;#000000&quot;&gt;Account validation&lt;br&gt;notification sent&lt;br&gt;&lt;/font&gt;" style="html=1;outlineConnect=0;whiteSpace=wrap;fillColor=#FFB973;shape=mxgraph.archimate3.application;appType=location;archiType=square;" vertex="1" parent="1"><mxGeometry x="170" y="740" width="110" height="80" as="geometry"/></mxCell><mxCell id="55" style="edgeStyle=orthogonalEdgeStyle;rounded=0;orthogonalLoop=1;jettySize=auto;html=1;entryX=1;entryY=0.5;entryDx=0;entryDy=0;entryPerimeter=0;fontColor=#000000;startArrow=none;startFill=0;exitX=0.5;exitY=0;exitDx=0;exitDy=0;exitPerimeter=0;dashed=1;" edge="1" parent="1" source="53" target="24"><mxGeometry relative="1" as="geometry"/></mxCell><mxCell id="53" value="&lt;font color=&quot;#000000&quot;&gt;Account&lt;br&gt;verified&lt;br&gt;&lt;/font&gt;" style="html=1;outlineConnect=0;whiteSpace=wrap;fillColor=#FFB973;shape=mxgraph.archimate3.application;appType=location;archiType=square;" vertex="1" parent="1"><mxGeometry x="550" y="580" width="110" height="80" as="geometry"/></mxCell><mxCell id="56" value="Candidate Registration" style="text;html=1;align=center;verticalAlign=middle;whiteSpace=wrap;rounded=0;fontSize=23;" vertex="1" parent="1"><mxGeometry x="60" y="30" width="280" height="30" as="geometry"/></mxCell></root></mxGraphModel></diagram></mxfile>